<svg width="140" height="32" fill="none" xmlns="http://www.w3.org/2000/svg"><path d="M46.766 8.032v12.473h6.123l-.386 2.88h-9.456V8.032h3.719zM64.21 23.385l-.817-3.301h-4.58l-.794 3.3h-3.855l4.74-15.352h4.512l4.74 15.353H64.21zm-4.762-5.938h3.31l-1.655-6.779-1.655 6.78zm20.739-9.415l-.363 2.791h-3.877v12.562h-3.72V10.823H68.17V8.032h12.018zm8.31-.377c2.237 0 3.975.702 5.215 2.105 1.255 1.403 1.882 3.382 1.882 5.937 0 1.67-.287 3.11-.861 4.32-.56 1.211-1.376 2.142-2.45 2.792-1.058.635-2.32.952-3.786.952-1.467 0-2.73-.317-3.787-.952-1.059-.636-1.875-1.551-2.45-2.748-.559-1.21-.838-2.665-.838-4.364 0-1.654.28-3.086.839-4.298.574-1.21 1.39-2.134 2.449-2.769 1.058-.65 2.32-.975 3.787-.975zm0 2.659c-1.074 0-1.875.428-2.404 1.285-.514.842-.771 2.208-.771 4.098 0 1.89.264 3.264.794 4.12.529.857 1.322 1.286 2.38 1.286 1.089 0 1.89-.421 2.404-1.263.53-.857.794-2.238.794-4.143 0-1.905-.265-3.278-.794-4.12-.529-.842-1.33-1.263-2.403-1.263zm14.307-2.282v15.353h-3.719V8.032h3.719zm9.026 0l-5.012 6.89 5.42 8.463h-4.309l-5.011-8.197 4.989-7.156h3.923zm12.502 0l-.385 2.592h-5.533v3.678h4.83v2.547h-4.83v3.921h5.918v2.615h-9.637V8.032h9.637zM140 23.385h-4.739l-4.536-11.897c.152 1.167.265 2.2.341 3.101.09.887.136 1.943.136 3.168v5.628h-3.311V8.032h4.626l4.648 11.919c-.332-2.024-.498-3.929-.498-5.716V8.032H140v15.353zM21.597 16.723h-2.76l2.26-6.237.5 6.237z" fill="rgba(64, 73, 96)"/><path fill-rule="evenodd" clip-rule="evenodd" d="M16.377 32c9.045 0 16.378-7.163 16.378-16S25.422 0 16.377 0 0 7.163 0 16s7.332 16 16.377 16zm-6.161-12.584L15.322 8h-3.955L4.914 22.4h11.88l1.066-2.942h3.933l.239 2.942h4.172L23.944 8h-4.78l-5.152 11.416h-3.796z" fill="rgba(64, 73, 96)"/></svg>